# xmcd
#
# Track frame offsets: 
#        150
#        15277
#        31612
#        53076
#        90942
#        107094
#        133319
#        157782
#        177024
#        197316
#        209195
#
# Disc length: 3041 seconds
#
# Revision: 1
# Processed by: cddbd v1.5.2PL0 Copyright (c) Steve Scherf et al.
# Submitted via: ExactAudioCopyFreeDBPlugin 1.0
#
DISCID=7c0bdf0b
DTITLE=Vintage#18 - Grit
DYEAR=2017
DGENRE=Blues
TTITLE0=Diamonds Are Optional
TTITLE1=Is This Too Good
TTITLE2=Love Hangover
TTITLE3=Million Miles
TTITLE4=Circles
TTITLE5=Pieces
TTITLE6=Just Got Back from Baby's
TTITLE7=Poor Me
TTITLE8=Remember
TTITLE9=Good Eye
TTITLE10=Circles Down Home
EXTD=
EXTT0=
EXTT1=
EXTT2=
EXTT3=
EXTT4=
EXTT5=
EXTT6=
EXTT7=
EXTT8=
EXTT9=
EXTT10=
PLAYORDER=
